<?xml version="1.0" encoding="utf-8"?>
<!-- Generator: Adobe Illustrator 19.1.1, SVG Export Plug-In . SVG Version: 6.00 Build 0)  -->
<svg version="1.1" id="Layer_1" xmlns="http://www.w3.org/2000/svg" xmlns:xlink="http://www.w3.org/1999/xlink" x="0px" y="0px"
	 viewBox="-230 310.8 149.2 172.2" style="enable-background:new -230 310.8 149.2 172.2;" xml:space="preserve">
<style type="text/css">
	.st0{fill:#585858;}
	.st1{fill:#FFFFFF;}
</style>
<polygon class="st0" points="-80.8,439.9 -155.4,483 -230,439.9 -230,353.8 -155.4,310.8 -80.8,353.8 "/>
<g>
	<g>
		<path class="st1" d="M-191.5,435.7h72.2c1.5,0,2.7-1.2,2.7-2.7v-36.1v-36.1c0-1.5-1.2-2.7-2.7-2.7h-72.2c-1.5,0-2.7,1.2-2.7,2.7
			v36.1V433C-194.2,434.5-193,435.7-191.5,435.7z M-169.9,363.5h47.8v30.6h-13.6c-1.3-9.7-9.7-17.3-19.7-17.3
			c-5.7,0-10.8,2.4-14.5,6.3C-169.9,383.2-169.9,363.5-169.9,363.5z M-155.4,382.4c8,0,14.5,6.5,14.5,14.5s-6.5,14.5-14.5,14.5
			c-8,0-14.5-6.5-14.5-14.5S-163.3,382.4-155.4,382.4z M-188.8,363.5h13.4v30.6h-13.4V363.5z M-188.8,399.6h13.6
			c1.3,9.7,9.7,17.3,19.7,17.3c10,0,18.4-7.6,19.7-17.3h13.6v30.6h-66.7V399.6L-188.8,399.6z"/>
		<path class="st1" d="M-140.8,375.9h7.1c1.5,0,2.7-1.2,2.7-2.7c0-1.5-1.2-2.7-2.7-2.7h-7.1c-1.5,0-2.7,1.2-2.7,2.7
			C-143.5,374.7-142.3,375.9-140.8,375.9z"/>
		<path class="st1" d="M-155.4,407.2c5.8,0,10.4-4.7,10.4-10.4s-4.6-10.4-10.4-10.4c-5.8,0-10.4,4.6-10.4,10.4
			S-161.1,407.2-155.4,407.2z M-155.4,391.9c2.7,0,4.9,2.2,4.9,4.9s-2.2,4.9-4.9,4.9c-2.7,0-4.9-2.2-4.9-4.9
			S-158.1,391.9-155.4,391.9z"/>
	</g>
</g>
</svg>
